<svg width="1941" height="1684" viewBox="0 0 1941 1684" fill="none" xmlns="http://www.w3.org/2000/svg">
<path d="M339.204 13.4605L177.678 0H174.986L172.294 5.38419L169.602 16.1526L165.564 32.3051L160.18 48.4577L153.449 67.3024L157.488 80.7628L162.872 92.8773V111.722V142.681V176.332L160.18 238.25L157.488 275.94L156.141 286.708L150.757 320.359L148.065 332.474L142.681 349.972L133.259 364.779L123.836 378.239L113.068 395.738L92.8773 419.967L79.4168 432.081L63.2642 446.888L44.4196 464.386L25.5749 481.885L13.4605 495.345L12.1144 526.304V550.533L10.7684 580.146V594.953L13.4605 616.49L17.4986 632.642L24.2288 658.217L26.9209 675.716L29.613 701.291L32.3051 724.173L37.6893 736.288L41.7275 751.094L49.8037 765.901L56.534 782.053L63.2642 792.822L72.6865 810.32L67.3024 834.549L63.2642 857.432L59.2261 880.315L52.4958 903.198L48.4577 922.042L43.0735 939.541L39.0354 961.078L34.9972 982.614L14.8065 1009.54L0 1031.07V1047.22L4.03814 1088.95V1142.79V1224.9V1234.33L28.267 1265.28L26.9209 1302.97L24.2288 1386.43L47.1117 1403.93L100.954 1447L142.681 1482L200.561 1527.76L201.907 1578.91L254.403 1624.68L288.054 1656.98L308.245 1646.22L328.436 1638.14L343.242 1635.45H382.277H390.354L395.738 1638.14L402.468 1643.52L409.198 1648.91L425.351 1665.06L444.196 1683.91L456.31 1673.14L524.958 1597.76L558.61 1562.76L584.184 1539.88L597.645 1526.42L621.874 1511.61L635.334 1500.84L659.563 1486.04L691.868 1457.77L706.675 1447H721.481L748.402 1448.35H759.171V1438.92L761.863 1414.7L763.209 1398.54L765.901 1390.47L769.939 1385.08L796.86 1337.97L831.857 1281.44L848.01 1254.52L856.086 1238.36L865.508 1226.25L874.931 1215.48L897.813 1193.94L930.119 1164.33L955.693 1138.76L985.307 1113.18L996.075 1109.14L1056.65 1106.45H1088.95L1125.3 1103.76H1149.52L1173.75 1101.07H1197.98L1222.21 1098.37L1272.01 1095.68H1329.89H1340.66L1348.74 1101.07L1358.16 1110.49L1370.28 1118.57H1379.7H1543.92H1659.68H1803.7L1941 1121.26V1117.22V1094.34L1939.65 1063.38V1044.53V1033.76L1935.62 1024.34L1923.5 1001.46L1910.04 966.462L1901.96 954.347L1896.58 936.849L1889.85 926.08L1873.7 907.236L1817.16 839.933L1772.74 784.745L1764.67 769.939L1757.94 757.825L1747.17 734.942L1739.09 720.135L1735.05 673.024V640.718L1733.71 624.566L1731.02 619.182L1724.29 615.144L1708.13 607.067L1690.64 597.645L1674.48 590.915L1656.98 581.492L1643.52 577.454H1626.03L1612.56 580.146L1604.49 577.454L1578.91 570.724L1507.57 546.495L1441.62 526.304L1378.35 506.114L1346.05 495.345L1329.89 491.307L1315.09 488.615L1289.51 485.923L1262.59 483.231L1218.17 479.193L1157.6 473.809L1132.03 471.117L1117.22 468.424L1101.07 464.386L1078.18 460.348L1060.69 456.31L1043.19 453.618L1021.65 450.926L983.96 446.888L969.154 444.196L954.347 442.85L935.503 438.811L922.042 434.773L911.274 432.081L895.121 425.351L880.315 418.621L753.786 327.089L730.904 313.629L713.405 306.899L682.446 296.13L639.372 265.171L503.422 164.218L339.204 13.4605Z" fill="#CE3F28"/>
</svg>
