<svg width="1733" height="1780" viewBox="0 0 1733 1780" fill="none" xmlns="http://www.w3.org/2000/svg">
<path d="M421.732 1771.98L248.078 1764.9V1569.98V1520.36L258.71 1502.64L276.429 1456.57L283.517 1435.31L297.693 1399.87V1332.53V1155.33V921.431V878.904L290.605 836.376L283.517 793.849L276.429 761.953L269.342 726.513V698.162L255.166 676.898L248.078 666.266L226.814 652.09L216.182 641.458L202.006 627.282L177.198 606.018L163.022 588.299L145.303 577.667L116.951 563.491L92.1432 552.859L67.3354 545.771L35.4397 538.683L14.1759 531.595L0 524.507V481.98V418.188V372.117L7.08793 357.941L35.4397 322.501L67.3354 276.429L92.1432 244.534L116.951 219.726L145.303 187.83L173.654 163.022L202.006 141.759L226.814 120.495L269.342 99.2311L311.869 74.4233L396.924 21.2638L432.364 7.08793L446.54 0L577.667 10.6319H620.194L676.898 17.7198L698.162 21.2638L924.975 120.495L949.783 131.127H978.135L1272.28 120.495L1733 106.319V127.583V163.022V205.55V237.446V283.517V336.677V382.748V428.82L1725.91 471.348L1718.82 513.875L1708.19 549.315L1694.02 584.755L1676.3 620.194L1665.66 648.546L1658.58 680.442L1647.94 722.969L1637.31 761.953L1619.59 800.937L1608.96 832.832L1591.24 868.272L1566.43 907.256L1534.54 939.151L1516.82 960.415L1484.92 985.223L1463.66 1002.94L1431.76 1017.12L1406.95 1034.84L1350.25 1066.73L1314.81 1084.45L1275.83 1105.72L1236.84 1123.44L1194.32 1144.7L1169.51 1155.33L1148.25 1165.97L1126.98 1176.6H1102.17L1077.37 1180.14H1063.19L1049.01 1187.23L1024.21 1201.4L1006.49 1212.04L988.767 1226.21L963.959 1243.93L932.063 1265.2L900.168 1293.55L871.816 1314.81L843.464 1339.62L815.112 1364.43L793.849 1385.69L765.497 1414.04L733.601 1456.57L712.337 1492.01L701.706 1506.19L694.618 1577.07V1697.56V1779.07L421.732 1771.98Z" fill="#CE3F28"/>
</svg>
