<svg width="2636" height="1749" viewBox="0 0 2636 1749" fill="none" xmlns="http://www.w3.org/2000/svg">
<path d="M416.336 1310.86L397.303 1291.83L392.545 1287.07H385.408H368.755H352.101H340.206L333.069 1291.83V1308.48V1332.27V1344.17V1358.44L337.827 1367.96L342.585 1377.48L347.343 1384.61L354.48 1391.75L359.238 1401.27L361.617 1410.78V1417.92L359.238 1427.44L356.859 1436.95L352.101 1448.85L344.964 1458.36L328.31 1467.88L299.762 1482.16L271.213 1496.43L235.527 1513.08L192.704 1536.87L152.26 1558.29L118.953 1574.94L102.3 1586.83L90.4043 1596.35L73.7509 1610.62L54.7184 1629.66L21.4116 1662.96L9.51625 1679.62L2.37906 1689.13L0 1701.03L4.75812 1710.55L11.8953 1717.68L28.5487 1727.2L52.3394 1736.71L78.509 1746.23L88.0253 1748.61L107.058 1743.85L135.607 1731.96L161.776 1724.82L192.704 1717.68H204.599L228.39 1708.17L256.939 1693.89L275.971 1684.38L297.383 1670.1L328.31 1658.21L352.101 1643.93L385.408 1627.28L397.303 1617.76L413.957 1610.62L432.989 1598.73L456.78 1582.08L487.708 1574.94H521.014L599.523 1572.56H644.726H692.307L720.856 1570.18L747.025 1567.8L775.574 1563.04H792.227L816.018 1551.15L827.913 1546.39L842.188 1541.63L849.325 1536.87L865.978 1510.7L880.253 1486.91L889.769 1470.26L899.285 1455.99V1441.71L901.664 1413.16V1384.61V1363.2L892.148 1344.17L885.011 1325.14L875.495 1308.48L868.357 1296.59L863.599 1284.69L858.841 1270.42V1253.77V1222.84L865.978 1191.91L875.495 1160.98L889.769 1132.43L906.422 1108.64L930.213 1077.71L956.383 1061.06L982.552 1042.03L1001.58 1034.89L1034.89 1023L1051.55 1015.86L1068.2 1008.72H1089.61H1106.26L1132.43 1011.1L1146.71 1013.48H1160.98L1175.26 1018.24L1196.67 1023L1210.94 1030.13L1222.84 1034.89L1234.73 1042.03L1251.39 1051.55L1272.8 1063.44L1287.07 1070.58L1301.35 1082.47L1313.24 1091.99L1329.9 1111.02L1351.31 1134.81L1382.23 1168.12L1391.75 1177.64L1410.78 1184.77L1463.12 1189.53H1517.84L1536.87 1177.64L1548.77 1172.88L1558.29 1158.6L1567.8 1153.84H1593.97L1620.14 1156.22H1636.79L1660.58 1160.98L1734.34 1170.5L1762.88 1172.88L1798.57 1175.26H1919.9H2010.31H2074.54H2114.99L2164.95 1170.5L2193.49 1168.12H2214.91L2245.83 1163.36L2264.87 1158.6L2286.28 1153.84L2310.07 1144.33L2357.65 1120.54L2390.96 1103.88L2419.51 1084.85L2455.19 1065.82L2474.22 1051.55L2488.5 1032.51L2514.67 1006.34L2545.6 965.899L2569.39 944.487L2583.66 927.834L2590.8 904.043L2600.31 854.083L2609.83 825.534V796.986L2612.21 749.404V716.097V668.516V642.347L2621.73 616.177L2633.62 592.386L2636 551.942V406.82L2628.86 185.567L2624.1 149.881L2609.83 116.574L2595.56 88.0253L2564.63 64.2347L2545.6 47.5812L2517.05 33.3069L2488.5 21.4116L2462.33 9.51625L2431.4 0L2409.99 14.2744L2376.68 38.065L2352.89 57.0975L2333.86 76.13L2324.34 85.6462L2319.58 97.5415L2314.83 107.058L2312.45 126.09L2310.07 137.986L2302.93 149.881H2229.18L2169.7 147.502L2155.43 130.848L2143.53 123.711L2100.71 126.09H2041.23L2005.55 130.848L1953.21 133.227H1915.14H1872.32L1836.64 128.469L1805.71 126.09L1779.54 121.332L1750.99 118.953L1727.2 114.195L1701.03 109.437L1670.1 107.058H1658.21L1639.17 104.679L1622.52 99.9206L1603.49 95.1625L1586.83 90.4043L1558.29 80.8881L1539.25 73.7509L1520.22 71.3718L1458.36 76.13L1408.4 80.8881L1365.58 83.2672L1308.48 85.6462H1268.04L1237.11 90.4043L1222.84 97.5415L1206.18 107.058L1184.77 116.574L1165.74 126.09L1141.95 135.607L1108.64 152.26L1065.82 173.671L1051.55 180.809L1032.51 187.946L1015.86 197.462L1003.96 206.978L992.069 216.495L977.794 226.011L961.141 235.527L944.487 247.422L932.592 256.939L918.318 266.455V275.971L915.939 335.448V361.617L913.56 373.513L911.181 383.029L904.043 394.924L899.285 404.44L889.769 418.715L885.011 428.231L875.495 442.505L868.357 454.401L863.599 466.296V582.87L870.737 587.628L877.874 597.144L887.39 604.282L894.527 609.04L896.906 616.177L899.285 632.83L901.664 649.484L904.043 663.758L908.801 680.412L901.664 687.549L889.769 689.928L880.253 697.065L870.737 706.581L856.462 727.993L846.946 742.267L837.43 758.921L827.913 773.195L823.155 789.848V808.881L820.776 835.051L818.397 908.801V925.455L813.639 949.246L806.502 968.278L796.986 984.931L785.09 1003.96L770.816 1025.38L761.3 1039.65L747.025 1053.92L725.614 1070.58L706.581 1089.61L685.17 1106.26L670.895 1125.3L661.379 1137.19L649.484 1153.84L639.968 1177.64L635.209 1191.91L632.83 1258.52L585.249 1318L416.336 1310.86Z" fill="#CE3F28"/>
</svg>
